<mxfile host="app.diagrams.net" modified="2023-11-04T23:12:21.362Z" agent="Mozilla/5.0 (Windows NT 10.0; Win64; x64) AppleWebKit/537.36 (KHTML, like Gecko) Chrome/118.0.0.0 Safari/537.36" etag="lUFhv0GVvttFlm0yyKTA" version="22.0.8" type="github">
  <diagram name="Page-1" id="9U-MlZ-Mbk7edItoPI5P">
    <mxGraphModel dx="880" dy="478" grid="1" gridSize="10" guides="1" tooltips="1" connect="1" arrows="1" fold="1" page="1" pageScale="1" pageWidth="850" pageHeight="1100" math="0" shadow="0">
      <root>
        <mxCell id="0" />
        <mxCell id="1" parent="0" />
        <mxCell id="xPZ0_XfrECjiMic9kWge-1" value="User" style="shape=umlActor;verticalLabelPosition=bottom;verticalAlign=top;html=1;" vertex="1" parent="1">
          <mxGeometry x="40" y="201" width="30" height="60" as="geometry" />
        </mxCell>
        <mxCell id="xPZ0_XfrECjiMic9kWge-2" value="Owner" style="shape=umlActor;verticalLabelPosition=bottom;verticalAlign=top;html=1;" vertex="1" parent="1">
          <mxGeometry x="160" y="120" width="30" height="60" as="geometry" />
        </mxCell>
        <mxCell id="xPZ0_XfrECjiMic9kWge-3" value="Employee" style="shape=umlActor;verticalLabelPosition=bottom;verticalAlign=top;html=1;" vertex="1" parent="1">
          <mxGeometry x="160" y="280" width="30" height="60" as="geometry" />
        </mxCell>
        <mxCell id="xPZ0_XfrECjiMic9kWge-6" value="" style="rounded=0;whiteSpace=wrap;html=1;" vertex="1" parent="1">
          <mxGeometry x="240" y="40" width="480" height="400" as="geometry" />
        </mxCell>
        <mxCell id="xPZ0_XfrECjiMic9kWge-7" value="Nama App (Point of Sales System)" style="text;html=1;strokeColor=none;fillColor=none;align=center;verticalAlign=middle;whiteSpace=wrap;rounded=0;fontStyle=0" vertex="1" parent="1">
          <mxGeometry x="240" y="40" width="200" height="30" as="geometry" />
        </mxCell>
        <mxCell id="xPZ0_XfrECjiMic9kWge-8" value="" style="endArrow=block;endSize=16;endFill=0;html=1;rounded=0;" edge="1" parent="1" source="xPZ0_XfrECjiMic9kWge-2">
          <mxGeometry width="160" relative="1" as="geometry">
            <mxPoint x="110" y="270" as="sourcePoint" />
            <mxPoint x="80" y="220" as="targetPoint" />
            <Array as="points">
              <mxPoint x="120" y="150" />
              <mxPoint x="120" y="220" />
            </Array>
          </mxGeometry>
        </mxCell>
        <mxCell id="xPZ0_XfrECjiMic9kWge-9" value="" style="endArrow=block;endSize=16;endFill=0;html=1;rounded=0;" edge="1" parent="1" source="xPZ0_XfrECjiMic9kWge-3">
          <mxGeometry width="160" relative="1" as="geometry">
            <mxPoint x="150" y="320" as="sourcePoint" />
            <mxPoint x="80" y="250" as="targetPoint" />
            <Array as="points">
              <mxPoint x="130" y="310" />
              <mxPoint x="130" y="250" />
            </Array>
          </mxGeometry>
        </mxCell>
        <mxCell id="xPZ0_XfrECjiMic9kWge-11" value="" style="ellipse;whiteSpace=wrap;html=1;" vertex="1" parent="1">
          <mxGeometry x="458" y="101" width="95" height="50" as="geometry" />
        </mxCell>
        <mxCell id="xPZ0_XfrECjiMic9kWge-12" value="Product Management" style="text;html=1;strokeColor=none;fillColor=none;align=center;verticalAlign=middle;whiteSpace=wrap;rounded=0;fontSize=10;" vertex="1" parent="1">
          <mxGeometry x="475.5" y="111" width="60" height="30" as="geometry" />
        </mxCell>
        <mxCell id="xPZ0_XfrECjiMic9kWge-17" value="" style="ellipse;whiteSpace=wrap;html=1;" vertex="1" parent="1">
          <mxGeometry x="459" y="170" width="95" height="50" as="geometry" />
        </mxCell>
        <mxCell id="xPZ0_XfrECjiMic9kWge-14" value="Employee Management" style="text;html=1;strokeColor=none;fillColor=none;align=center;verticalAlign=middle;whiteSpace=wrap;rounded=0;fontSize=10;" vertex="1" parent="1">
          <mxGeometry x="476.5" y="180" width="60" height="30" as="geometry" />
        </mxCell>
        <mxCell id="xPZ0_XfrECjiMic9kWge-18" value="" style="ellipse;whiteSpace=wrap;html=1;" vertex="1" parent="1">
          <mxGeometry x="458" y="240" width="95" height="50" as="geometry" />
        </mxCell>
        <mxCell id="xPZ0_XfrECjiMic9kWge-16" value="Outlet Management" style="text;html=1;strokeColor=none;fillColor=none;align=center;verticalAlign=middle;whiteSpace=wrap;rounded=0;fontSize=10;" vertex="1" parent="1">
          <mxGeometry x="475.5" y="250" width="60" height="30" as="geometry" />
        </mxCell>
        <mxCell id="xPZ0_XfrECjiMic9kWge-19" value="" style="ellipse;whiteSpace=wrap;html=1;" vertex="1" parent="1">
          <mxGeometry x="460" y="380" width="95" height="50" as="geometry" />
        </mxCell>
        <mxCell id="xPZ0_XfrECjiMic9kWge-20" value="Transaction" style="text;html=1;strokeColor=none;fillColor=none;align=center;verticalAlign=middle;whiteSpace=wrap;rounded=0;fontSize=10;" vertex="1" parent="1">
          <mxGeometry x="477.5" y="390" width="60" height="30" as="geometry" />
        </mxCell>
        <mxCell id="xPZ0_XfrECjiMic9kWge-21" value="" style="ellipse;whiteSpace=wrap;html=1;" vertex="1" parent="1">
          <mxGeometry x="270" y="126" width="95" height="50" as="geometry" />
        </mxCell>
        <mxCell id="xPZ0_XfrECjiMic9kWge-22" value="Register" style="text;html=1;strokeColor=none;fillColor=none;align=center;verticalAlign=middle;whiteSpace=wrap;rounded=0;fontSize=10;" vertex="1" parent="1">
          <mxGeometry x="287.5" y="136" width="60" height="30" as="geometry" />
        </mxCell>
        <mxCell id="xPZ0_XfrECjiMic9kWge-23" value="" style="ellipse;whiteSpace=wrap;html=1;" vertex="1" parent="1">
          <mxGeometry x="270" y="230" width="95" height="50" as="geometry" />
        </mxCell>
        <mxCell id="xPZ0_XfrECjiMic9kWge-24" value="Login" style="text;html=1;strokeColor=none;fillColor=none;align=center;verticalAlign=middle;whiteSpace=wrap;rounded=0;fontSize=10;" vertex="1" parent="1">
          <mxGeometry x="287.5" y="240" width="60" height="30" as="geometry" />
        </mxCell>
        <mxCell id="xPZ0_XfrECjiMic9kWge-31" value="" style="ellipse;whiteSpace=wrap;html=1;" vertex="1" parent="1">
          <mxGeometry x="460" y="310" width="95" height="50" as="geometry" />
        </mxCell>
        <mxCell id="xPZ0_XfrECjiMic9kWge-32" value="Generate Report" style="text;html=1;strokeColor=none;fillColor=none;align=center;verticalAlign=middle;whiteSpace=wrap;rounded=0;fontSize=10;" vertex="1" parent="1">
          <mxGeometry x="477.5" y="320" width="60" height="30" as="geometry" />
        </mxCell>
        <mxCell id="xPZ0_XfrECjiMic9kWge-33" value="" style="endArrow=none;html=1;rounded=0;entryX=0;entryY=0.5;entryDx=0;entryDy=0;" edge="1" parent="1" target="xPZ0_XfrECjiMic9kWge-21">
          <mxGeometry width="50" height="50" relative="1" as="geometry">
            <mxPoint x="200" y="150" as="sourcePoint" />
            <mxPoint x="250" y="120" as="targetPoint" />
          </mxGeometry>
        </mxCell>
        <mxCell id="xPZ0_XfrECjiMic9kWge-34" value="" style="endArrow=none;html=1;rounded=0;entryX=0;entryY=0.5;entryDx=0;entryDy=0;" edge="1" parent="1" target="xPZ0_XfrECjiMic9kWge-23">
          <mxGeometry width="50" height="50" relative="1" as="geometry">
            <mxPoint x="200" y="150" as="sourcePoint" />
            <mxPoint x="280" y="186" as="targetPoint" />
          </mxGeometry>
        </mxCell>
        <mxCell id="xPZ0_XfrECjiMic9kWge-35" value="" style="endArrow=none;html=1;rounded=0;entryX=0;entryY=0.5;entryDx=0;entryDy=0;" edge="1" parent="1" target="xPZ0_XfrECjiMic9kWge-23">
          <mxGeometry width="50" height="50" relative="1" as="geometry">
            <mxPoint x="200" y="310" as="sourcePoint" />
            <mxPoint x="280" y="265" as="targetPoint" />
          </mxGeometry>
        </mxCell>
        <mxCell id="xPZ0_XfrECjiMic9kWge-36" value="&lt;font style=&quot;font-size: 8px;&quot;&gt;&amp;lt;&amp;lt;Include&amp;gt;&amp;gt;&lt;/font&gt;" style="endArrow=open;endSize=12;dashed=1;html=1;rounded=0;exitX=0.5;exitY=1;exitDx=0;exitDy=0;entryX=0;entryY=0.5;entryDx=0;entryDy=0;fontSize=10;" edge="1" parent="1" source="xPZ0_XfrECjiMic9kWge-23" target="xPZ0_XfrECjiMic9kWge-19">
          <mxGeometry x="0.2454" width="160" relative="1" as="geometry">
            <mxPoint x="317.5" y="290" as="sourcePoint" />
            <mxPoint x="435.9999999999999" y="365" as="targetPoint" />
            <Array as="points">
              <mxPoint x="320" y="405" />
            </Array>
            <mxPoint as="offset" />
          </mxGeometry>
        </mxCell>
        <mxCell id="xPZ0_XfrECjiMic9kWge-37" value="&lt;font style=&quot;font-size: 8px;&quot;&gt;&amp;lt;&amp;lt;Include&amp;gt;&amp;gt;&lt;/font&gt;" style="endArrow=open;endSize=12;dashed=1;html=1;rounded=0;fontSize=10;exitX=1;exitY=0.5;exitDx=0;exitDy=0;entryX=-0.004;entryY=0.443;entryDx=0;entryDy=0;entryPerimeter=0;" edge="1" parent="1" source="xPZ0_XfrECjiMic9kWge-23" target="xPZ0_XfrECjiMic9kWge-19">
          <mxGeometry x="-0.2154" width="160" relative="1" as="geometry">
            <mxPoint x="364" y="251" as="sourcePoint" />
            <mxPoint x="430" y="420" as="targetPoint" />
            <Array as="points">
              <mxPoint x="365" y="350" />
              <mxPoint x="365" y="380" />
              <mxPoint x="460" y="380" />
            </Array>
            <mxPoint as="offset" />
          </mxGeometry>
        </mxCell>
        <mxCell id="xPZ0_XfrECjiMic9kWge-40" value="&lt;font style=&quot;font-size: 8px;&quot;&gt;&amp;lt;&amp;lt;Include&amp;gt;&amp;gt;&lt;/font&gt;" style="endArrow=open;endSize=12;dashed=1;html=1;rounded=0;fontSize=10;exitX=1;exitY=0.5;exitDx=0;exitDy=0;entryX=0;entryY=0.5;entryDx=0;entryDy=0;" edge="1" parent="1" source="xPZ0_XfrECjiMic9kWge-23" target="xPZ0_XfrECjiMic9kWge-31">
          <mxGeometry x="0.4286" width="160" relative="1" as="geometry">
            <mxPoint x="375" y="265" as="sourcePoint" />
            <mxPoint x="450" y="425" as="targetPoint" />
            <Array as="points">
              <mxPoint x="380" y="255" />
              <mxPoint x="380" y="335" />
              <mxPoint x="400" y="335" />
            </Array>
            <mxPoint as="offset" />
          </mxGeometry>
        </mxCell>
        <mxCell id="xPZ0_XfrECjiMic9kWge-41" value="&lt;font style=&quot;font-size: 8px;&quot;&gt;&amp;lt;&amp;lt;Include&amp;gt;&amp;gt;&lt;/font&gt;" style="endArrow=open;endSize=12;dashed=1;html=1;rounded=0;fontSize=10;exitX=1;exitY=0.5;exitDx=0;exitDy=0;entryX=0;entryY=0.5;entryDx=0;entryDy=0;" edge="1" parent="1" source="xPZ0_XfrECjiMic9kWge-23" target="xPZ0_XfrECjiMic9kWge-18">
          <mxGeometry x="0.2844" width="160" relative="1" as="geometry">
            <mxPoint x="375" y="265" as="sourcePoint" />
            <mxPoint x="446" y="359" as="targetPoint" />
            <Array as="points">
              <mxPoint x="400" y="255" />
              <mxPoint x="400" y="270" />
              <mxPoint x="410" y="265" />
            </Array>
            <mxPoint as="offset" />
          </mxGeometry>
        </mxCell>
        <mxCell id="xPZ0_XfrECjiMic9kWge-42" value="&lt;font style=&quot;font-size: 8px;&quot;&gt;&amp;lt;&amp;lt;Include&amp;gt;&amp;gt;&lt;/font&gt;" style="endArrow=open;endSize=12;dashed=1;html=1;rounded=0;fontSize=10;exitX=1;exitY=0.5;exitDx=0;exitDy=0;entryX=0;entryY=0.5;entryDx=0;entryDy=0;" edge="1" parent="1" source="xPZ0_XfrECjiMic9kWge-23" target="xPZ0_XfrECjiMic9kWge-17">
          <mxGeometry x="0.4935" width="160" relative="1" as="geometry">
            <mxPoint x="375" y="265" as="sourcePoint" />
            <mxPoint x="469" y="280" as="targetPoint" />
            <Array as="points">
              <mxPoint x="390" y="255" />
              <mxPoint x="390" y="230" />
              <mxPoint x="390" y="220" />
              <mxPoint x="390" y="195" />
            </Array>
            <mxPoint as="offset" />
          </mxGeometry>
        </mxCell>
        <mxCell id="xPZ0_XfrECjiMic9kWge-43" value="&lt;font style=&quot;font-size: 8px;&quot;&gt;&amp;lt;&amp;lt;Include&amp;gt;&amp;gt;&lt;/font&gt;" style="endArrow=open;endSize=12;dashed=1;html=1;rounded=0;fontSize=10;exitX=1;exitY=0.5;exitDx=0;exitDy=0;entryX=0;entryY=0.5;entryDx=0;entryDy=0;" edge="1" parent="1" source="xPZ0_XfrECjiMic9kWge-23" target="xPZ0_XfrECjiMic9kWge-11">
          <mxGeometry x="0.4414" width="160" relative="1" as="geometry">
            <mxPoint x="375" y="265" as="sourcePoint" />
            <mxPoint x="469" y="205" as="targetPoint" />
            <Array as="points">
              <mxPoint x="370" y="255" />
              <mxPoint x="370" y="230" />
              <mxPoint x="370" y="180" />
              <mxPoint x="410" y="180" />
              <mxPoint x="410" y="126" />
            </Array>
            <mxPoint as="offset" />
          </mxGeometry>
        </mxCell>
        <mxCell id="xPZ0_XfrECjiMic9kWge-45" value="&lt;font style=&quot;font-size: 8px;&quot;&gt;&amp;lt;&amp;lt;Extend&amp;gt;&amp;gt;&lt;/font&gt;" style="endArrow=open;endSize=12;dashed=1;html=1;rounded=0;exitX=0.5;exitY=1;exitDx=0;exitDy=0;entryX=0.5;entryY=0;entryDx=0;entryDy=0;" edge="1" parent="1" source="xPZ0_XfrECjiMic9kWge-21" target="xPZ0_XfrECjiMic9kWge-23">
          <mxGeometry x="-0.3793" y="2" width="160" relative="1" as="geometry">
            <mxPoint x="310" y="210" as="sourcePoint" />
            <mxPoint x="470" y="210" as="targetPoint" />
            <mxPoint as="offset" />
          </mxGeometry>
        </mxCell>
        <mxCell id="xPZ0_XfrECjiMic9kWge-46" value="" style="ellipse;whiteSpace=wrap;html=1;" vertex="1" parent="1">
          <mxGeometry x="600" y="240" width="95" height="50" as="geometry" />
        </mxCell>
        <mxCell id="xPZ0_XfrECjiMic9kWge-47" value="CRUD" style="text;html=1;strokeColor=none;fillColor=none;align=center;verticalAlign=middle;whiteSpace=wrap;rounded=0;fontSize=10;" vertex="1" parent="1">
          <mxGeometry x="617.5" y="250" width="60" height="30" as="geometry" />
        </mxCell>
        <mxCell id="xPZ0_XfrECjiMic9kWge-48" value="&lt;font style=&quot;font-size: 8px;&quot;&gt;&amp;lt;&amp;lt;Extend&amp;gt;&amp;gt;&lt;/font&gt;" style="endArrow=open;endSize=12;dashed=1;html=1;rounded=0;fontSize=10;exitX=1;exitY=0.5;exitDx=0;exitDy=0;entryX=0;entryY=0;entryDx=0;entryDy=0;" edge="1" parent="1" source="xPZ0_XfrECjiMic9kWge-17" target="xPZ0_XfrECjiMic9kWge-46">
          <mxGeometry x="0.3349" y="-4" width="160" relative="1" as="geometry">
            <mxPoint x="580" y="201" as="sourcePoint" />
            <mxPoint x="674" y="141" as="targetPoint" />
            <Array as="points">
              <mxPoint x="605" y="195" />
              <mxPoint x="614" y="195" />
            </Array>
            <mxPoint as="offset" />
          </mxGeometry>
        </mxCell>
        <mxCell id="xPZ0_XfrECjiMic9kWge-49" value="&lt;font style=&quot;font-size: 8px;&quot;&gt;&amp;lt;&amp;lt;Extend&amp;gt;&amp;gt;&lt;/font&gt;" style="endArrow=open;endSize=12;dashed=1;html=1;rounded=0;fontSize=10;exitX=1;exitY=0.5;exitDx=0;exitDy=0;entryX=0.5;entryY=0;entryDx=0;entryDy=0;" edge="1" parent="1" source="xPZ0_XfrECjiMic9kWge-11" target="xPZ0_XfrECjiMic9kWge-46">
          <mxGeometry x="0.3349" y="-4" width="160" relative="1" as="geometry">
            <mxPoint x="564" y="205" as="sourcePoint" />
            <mxPoint x="624" y="257" as="targetPoint" />
            <Array as="points">
              <mxPoint x="650" y="126" />
            </Array>
            <mxPoint as="offset" />
          </mxGeometry>
        </mxCell>
        <mxCell id="xPZ0_XfrECjiMic9kWge-50" value="&lt;font style=&quot;font-size: 8px;&quot;&gt;&amp;lt;&amp;lt;Extend&amp;gt;&amp;gt;&lt;/font&gt;" style="endArrow=open;endSize=12;dashed=1;html=1;rounded=0;fontSize=10;exitX=1;exitY=0.5;exitDx=0;exitDy=0;entryX=0;entryY=1;entryDx=0;entryDy=0;" edge="1" parent="1" source="xPZ0_XfrECjiMic9kWge-18" target="xPZ0_XfrECjiMic9kWge-46">
          <mxGeometry x="-0.3874" width="160" relative="1" as="geometry">
            <mxPoint x="564" y="205" as="sourcePoint" />
            <mxPoint x="624" y="257" as="targetPoint" />
            <Array as="points">
              <mxPoint x="570" y="265" />
              <mxPoint x="570" y="300" />
              <mxPoint x="614" y="300" />
            </Array>
            <mxPoint as="offset" />
          </mxGeometry>
        </mxCell>
        <mxCell id="xPZ0_XfrECjiMic9kWge-51" value="&lt;font style=&quot;font-size: 8px;&quot;&gt;&amp;lt;&amp;lt;Extend&amp;gt;&amp;gt;&lt;/font&gt;" style="endArrow=open;endSize=12;dashed=1;html=1;rounded=0;fontSize=10;exitX=1;exitY=0.5;exitDx=0;exitDy=0;entryX=0.493;entryY=1.045;entryDx=0;entryDy=0;entryPerimeter=0;" edge="1" parent="1" source="xPZ0_XfrECjiMic9kWge-19" target="xPZ0_XfrECjiMic9kWge-46">
          <mxGeometry x="0.147" width="160" relative="1" as="geometry">
            <mxPoint x="563" y="275" as="sourcePoint" />
            <mxPoint x="624" y="293" as="targetPoint" />
            <Array as="points">
              <mxPoint x="640" y="405" />
              <mxPoint x="648" y="405" />
            </Array>
            <mxPoint as="offset" />
          </mxGeometry>
        </mxCell>
      </root>
    </mxGraphModel>
  </diagram>
</mxfile>
